<?xml version="1.0" encoding="UTF-8"?>
<svg xmlns="http://www.w3.org/2000/svg" viewBox="0 0 1600 1020" width="1600" height="1020">
<rect width="100%" height="100%" fill="#ffffff" />
<g><text x="800" y="48" font-family="Arial, sans-serif" font-size="24" font-weight="bold" text-anchor="middle" fill="#0f172a">DIAGRAMA ENTIDAD - RELACIÓN (NOTACIÓN DE CHEN)</text><text x="800" y="76" font-family="Arial, sans-serif" font-size="14" text-anchor="middle" fill="#64748b">Rectángulos = Entidades  |  Rombos = Relaciones  |  Óvalos = Atributos (Claves primarias subrayadas)  |  1:N = Cardinalidad</text></g>
<g id="lines">
<line x1="280" y1="280" x2="130" y2="190" stroke="#1e293b" stroke-width="2" />
<line x1="280" y1="280" x2="240" y2="170" stroke="#1e293b" stroke-width="2" />
<line x1="280" y1="280" x2="370" y2="180" stroke="#1e293b" stroke-width="2" />
<line x1="280" y1="280" x2="110" y2="280" stroke="#1e293b" stroke-width="2" />
<line x1="280" y1="280" x2="130" y2="370" stroke="#1e293b" stroke-width="2" />
<line x1="1300" y1="280" x2="1300" y2="160" stroke="#1e293b" stroke-width="2" />
<line x1="1300" y1="280" x2="1170" y2="180" stroke="#1e293b" stroke-width="2" />
<line x1="1300" y1="280" x2="1420" y2="180" stroke="#1e293b" stroke-width="2" />
<line x1="1300" y1="280" x2="1460" y2="280" stroke="#1e293b" stroke-width="2" />
<line x1="790" y1="470" x2="790" y2="340" stroke="#1e293b" stroke-width="2" />
<line x1="790" y1="470" x2="690" y2="375" stroke="#1e293b" stroke-width="2" />
<line x1="790" y1="470" x2="890" y2="375" stroke="#1e293b" stroke-width="2" />
<line x1="790" y1="470" x2="650" y2="550" stroke="#1e293b" stroke-width="2" />
<line x1="790" y1="780" x2="660" y2="890" stroke="#1e293b" stroke-width="2" />
<line x1="790" y1="780" x2="790" y2="900" stroke="#1e293b" stroke-width="2" />
<line x1="790" y1="780" x2="920" y2="890" stroke="#1e293b" stroke-width="2" />
<line x1="280" y1="760" x2="140" y2="680" stroke="#1e293b" stroke-width="2" />
<line x1="280" y1="760" x2="130" y2="760" stroke="#1e293b" stroke-width="2" />
<line x1="280" y1="760" x2="140" y2="840" stroke="#1e293b" stroke-width="2" />
<line x1="280" y1="760" x2="280" y2="880" stroke="#1e293b" stroke-width="2" />
<line x1="1300" y1="760" x2="1450" y2="670" stroke="#1e293b" stroke-width="2" />
<line x1="1300" y1="760" x2="1470" y2="760" stroke="#1e293b" stroke-width="2" />
<line x1="1300" y1="760" x2="1450" y2="840" stroke="#1e293b" stroke-width="2" />
<line x1="1300" y1="760" x2="1340" y2="890" stroke="#1e293b" stroke-width="2" />
<line x1="1300" y1="760" x2="1220" y2="890" stroke="#1e293b" stroke-width="2" />
<line x1="1300" y1="760" x2="1100" y2="880" stroke="#1e293b" stroke-width="2" />
<line x1="280" y1="280" x2="520" y2="395" stroke="#1e293b" stroke-width="2" />
<line x1="520" y1="395" x2="790" y2="470" stroke="#1e293b" stroke-width="2" />
<line x1="1300" y1="280" x2="1060" y2="395" stroke="#1e293b" stroke-width="2" />
<line x1="1060" y1="395" x2="790" y2="470" stroke="#1e293b" stroke-width="2" />
<line x1="790" y1="470" x2="790" y2="625" stroke="#1e293b" stroke-width="2" />
<line x1="790" y1="625" x2="790" y2="780" stroke="#1e293b" stroke-width="2" />
<line x1="280" y1="280" x2="280" y2="520" stroke="#1e293b" stroke-width="2" />
<line x1="280" y1="520" x2="280" y2="760" stroke="#1e293b" stroke-width="2" />
<line x1="790" y1="470" x2="1045" y2="620" stroke="#1e293b" stroke-width="2" />
<line x1="1045" y1="620" x2="1300" y2="760" stroke="#1e293b" stroke-width="2" />
<line x1="1300" y1="280" x2="1300" y2="520" stroke="#1e293b" stroke-width="2" />
<line x1="1300" y1="520" x2="1300" y2="760" stroke="#1e293b" stroke-width="2" />
<line x1="280" y1="760" x2="535" y2="760" stroke="#1e293b" stroke-width="2" />
<path d="M 535 760 C 650 760, 950 560, 1300 305" fill="none" stroke="#1e293b" stroke-width="2" stroke-dasharray="6,4" />
</g>
<g id="elements">
<g><ellipse cx="130" cy="190" rx="42" ry="21" fill="#ffffff" stroke="#334155" stroke-width="1.8" /><text x="130" y="195" font-family="Arial, sans-serif" font-size="13" font-weight="bold" text-decoration="underline" text-anchor="middle" fill="#0f172a">id</text></g>
<g><ellipse cx="240" cy="170" rx="54" ry="21" fill="#ffffff" stroke="#334155" stroke-width="1.8" /><text x="240" y="175" font-family="Arial, sans-serif" font-size="13" text-anchor="middle" fill="#0f172a">desarrollo</text></g>
<g><ellipse cx="370" cy="180" rx="42" ry="21" fill="#ffffff" stroke="#334155" stroke-width="1.8" /><text x="370" y="185" font-family="Arial, sans-serif" font-size="13" text-anchor="middle" fill="#0f172a">villa</text></g>
<g><ellipse cx="110" cy="280" rx="45" ry="21" fill="#ffffff" stroke="#334155" stroke-width="1.8" /><text x="110" y="285" font-family="Arial, sans-serif" font-size="13" text-anchor="middle" fill="#0f172a">estatus</text></g>
<g><ellipse cx="130" cy="370" rx="58" ry="21" fill="#ffffff" stroke="#334155" stroke-width="1.8" /><text x="130" y="375" font-family="Arial, sans-serif" font-size="13" text-anchor="middle" fill="#0f172a">descripcion</text></g>
<g><ellipse cx="1300" cy="160" rx="42" ry="21" fill="#ffffff" stroke="#334155" stroke-width="1.8" /><text x="1300" y="165" font-family="Arial, sans-serif" font-size="13" font-weight="bold" text-decoration="underline" text-anchor="middle" fill="#0f172a">id</text></g>
<g><ellipse cx="1170" cy="180" rx="48" ry="21" fill="#ffffff" stroke="#334155" stroke-width="1.8" /><text x="1170" y="185" font-family="Arial, sans-serif" font-size="13" text-anchor="middle" fill="#0f172a">nombre</text></g>
<g><ellipse cx="1420" cy="180" rx="44" ry="21" fill="#ffffff" stroke="#334155" stroke-width="1.8" /><text x="1420" y="185" font-family="Arial, sans-serif" font-size="13" text-anchor="middle" fill="#0f172a">rol</text></g>
<g><ellipse cx="1460" cy="280" rx="44" ry="21" fill="#ffffff" stroke="#334155" stroke-width="1.8" /><text x="1460" y="285" font-family="Arial, sans-serif" font-size="13" text-anchor="middle" fill="#0f172a">activo</text></g>
<g><ellipse cx="790" cy="340" rx="42" ry="21" fill="#ffffff" stroke="#334155" stroke-width="1.8" /><text x="790" y="345" font-family="Arial, sans-serif" font-size="13" font-weight="bold" text-decoration="underline" text-anchor="middle" fill="#0f172a">id</text></g>
<g><ellipse cx="690" cy="375" rx="44" ry="21" fill="#ffffff" stroke="#334155" stroke-width="1.8" /><text x="690" y="380" font-family="Arial, sans-serif" font-size="13" text-anchor="middle" fill="#0f172a">titulo</text></g>
<g><ellipse cx="890" cy="375" rx="46" ry="21" fill="#ffffff" stroke="#334155" stroke-width="1.8" /><text x="890" y="380" font-family="Arial, sans-serif" font-size="13" text-anchor="middle" fill="#0f172a">estatus</text></g>
<g><ellipse cx="650" cy="550" rx="58" ry="21" fill="#ffffff" stroke="#334155" stroke-width="1.8" /><text x="650" y="555" font-family="Arial, sans-serif" font-size="13" text-anchor="middle" fill="#0f172a">descripcion</text></g>
<g><ellipse cx="660" cy="890" rx="42" ry="21" fill="#ffffff" stroke="#334155" stroke-width="1.8" /><text x="660" y="895" font-family="Arial, sans-serif" font-size="13" font-weight="bold" text-decoration="underline" text-anchor="middle" fill="#0f172a">id</text></g>
<g><ellipse cx="790" cy="900" rx="46" ry="21" fill="#ffffff" stroke="#334155" stroke-width="1.8" /><text x="790" y="905" font-family="Arial, sans-serif" font-size="13" text-anchor="middle" fill="#0f172a">titulo</text></g>
<g><ellipse cx="920" cy="890" rx="58" ry="21" fill="#ffffff" stroke="#334155" stroke-width="1.8" /><text x="920" y="895" font-family="Arial, sans-serif" font-size="13" text-anchor="middle" fill="#0f172a">completada</text></g>
<g><ellipse cx="140" cy="680" rx="42" ry="21" fill="#ffffff" stroke="#334155" stroke-width="1.8" /><text x="140" y="685" font-family="Arial, sans-serif" font-size="13" font-weight="bold" text-decoration="underline" text-anchor="middle" fill="#0f172a">id</text></g>
<g><ellipse cx="130" cy="760" rx="58" ry="21" fill="#ffffff" stroke="#334155" stroke-width="1.8" /><text x="130" y="765" font-family="Arial, sans-serif" font-size="13" text-anchor="middle" fill="#0f172a">descripcion</text></g>
<g><ellipse cx="140" cy="840" rx="50" ry="21" fill="#ffffff" stroke="#334155" stroke-width="1.8" /><text x="140" y="845" font-family="Arial, sans-serif" font-size="13" text-anchor="middle" fill="#0f172a">prioridad</text></g>
<g><ellipse cx="280" cy="880" rx="46" ry="21" fill="#ffffff" stroke="#334155" stroke-width="1.8" /><text x="280" y="885" font-family="Arial, sans-serif" font-size="13" text-anchor="middle" fill="#0f172a">estatus</text></g>
<g><ellipse cx="1450" cy="670" rx="42" ry="21" fill="#ffffff" stroke="#334155" stroke-width="1.8" /><text x="1450" y="675" font-family="Arial, sans-serif" font-size="13" font-weight="bold" text-decoration="underline" text-anchor="middle" fill="#0f172a">id</text></g>
<g><ellipse cx="1470" cy="760" rx="44" ry="21" fill="#ffffff" stroke="#334155" stroke-width="1.8" /><text x="1470" y="765" font-family="Arial, sans-serif" font-size="13" text-anchor="middle" fill="#0f172a">tipo</text></g>
<g><ellipse cx="1450" cy="840" rx="48" ry="21" fill="#ffffff" stroke="#334155" stroke-width="1.8" /><text x="1450" y="845" font-family="Arial, sans-serif" font-size="13" text-anchor="middle" fill="#0f172a">latitud</text></g>
<g><ellipse cx="1340" cy="890" rx="50" ry="21" fill="#ffffff" stroke="#334155" stroke-width="1.8" /><text x="1340" y="895" font-family="Arial, sans-serif" font-size="13" text-anchor="middle" fill="#0f172a">longitud</text></g>
<g><ellipse cx="1220" cy="890" rx="50" ry="21" fill="#ffffff" stroke="#334155" stroke-width="1.8" /><text x="1220" y="895" font-family="Arial, sans-serif" font-size="13" text-anchor="middle" fill="#0f172a">foto_url</text></g>
<g><ellipse cx="1100" cy="880" rx="54" ry="21" fill="#ffffff" stroke="#334155" stroke-width="1.8" /><text x="1100" y="885" font-family="Arial, sans-serif" font-size="13" text-anchor="middle" fill="#0f172a">fecha_hora</text></g>
<g><polygon points="520,369 575,395 520,421 465,395" fill="#ffffff" stroke="#0f172a" stroke-width="2" /><text x="520" y="400" font-family="Arial, sans-serif" font-size="14" font-weight="bold" text-anchor="middle" fill="#0f172a">Tiene</text><text x="520" y="361" font-family="Arial, sans-serif" font-size="13" font-weight="bold" text-anchor="middle" fill="#475569">1:N</text></g>
<text x="370" y="325" font-family="Arial, sans-serif" font-size="16" font-weight="bold" fill="#0f172a">1</text>
<text x="660" y="445" font-family="Arial, sans-serif" font-size="16" font-weight="bold" fill="#0f172a">N</text>
<g><polygon points="1060,369 1125,395 1060,421 995,395" fill="#ffffff" stroke="#0f172a" stroke-width="2" /><text x="1060" y="400" font-family="Arial, sans-serif" font-size="14" font-weight="bold" text-anchor="middle" fill="#0f172a">Asignada a</text><text x="1060" y="361" font-family="Arial, sans-serif" font-size="13" font-weight="bold" text-anchor="middle" fill="#475569">1:N</text></g>
<text x="1200" y="325" font-family="Arial, sans-serif" font-size="16" font-weight="bold" fill="#0f172a">1</text>
<text x="910" y="445" font-family="Arial, sans-serif" font-size="16" font-weight="bold" fill="#0f172a">N</text>
<g><polygon points="790,599 855,625 790,651 725,625" fill="#ffffff" stroke="#0f172a" stroke-width="2" /><text x="790" y="630" font-family="Arial, sans-serif" font-size="14" font-weight="bold" text-anchor="middle" fill="#0f172a">Se compone</text><text x="790" y="591" font-family="Arial, sans-serif" font-size="13" font-weight="bold" text-anchor="middle" fill="#475569">1:N</text></g>
<text x="805" y="535" font-family="Arial, sans-serif" font-size="16" font-weight="bold" fill="#0f172a">1</text>
<text x="805" y="725" font-family="Arial, sans-serif" font-size="16" font-weight="bold" fill="#0f172a">N</text>
<g><polygon points="280,494 335,520 280,546 225,520" fill="#ffffff" stroke="#0f172a" stroke-width="2" /><text x="280" y="525" font-family="Arial, sans-serif" font-size="14" font-weight="bold" text-anchor="middle" fill="#0f172a">Presenta</text><text x="280" y="486" font-family="Arial, sans-serif" font-size="13" font-weight="bold" text-anchor="middle" fill="#475569">1:N</text></g>
<text x="295" y="345" font-family="Arial, sans-serif" font-size="16" font-weight="bold" fill="#0f172a">1</text>
<text x="295" y="695" font-family="Arial, sans-serif" font-size="16" font-weight="bold" fill="#0f172a">N</text>
<g><polygon points="1045,594 1100,620 1045,646 990,620" fill="#ffffff" stroke="#0f172a" stroke-width="2" /><text x="1045" y="625" font-family="Arial, sans-serif" font-size="14" font-weight="bold" text-anchor="middle" fill="#0f172a">Genera</text><text x="1045" y="586" font-family="Arial, sans-serif" font-size="13" font-weight="bold" text-anchor="middle" fill="#475569">1:N</text></g>
<text x="890" y="535" font-family="Arial, sans-serif" font-size="16" font-weight="bold" fill="#0f172a">1</text>
<text x="1180" y="705" font-family="Arial, sans-serif" font-size="16" font-weight="bold" fill="#0f172a">N</text>
<g><polygon points="1300,494 1355,520 1300,546 1245,520" fill="#ffffff" stroke="#0f172a" stroke-width="2" /><text x="1300" y="525" font-family="Arial, sans-serif" font-size="14" font-weight="bold" text-anchor="middle" fill="#0f172a">Realiza</text><text x="1300" y="486" font-family="Arial, sans-serif" font-size="13" font-weight="bold" text-anchor="middle" fill="#475569">1:N</text></g>
<text x="1315" y="345" font-family="Arial, sans-serif" font-size="16" font-weight="bold" fill="#0f172a">1</text>
<text x="1315" y="695" font-family="Arial, sans-serif" font-size="16" font-weight="bold" fill="#0f172a">N</text>
<g><polygon points="535,734 590,760 535,786 480,760" fill="#ffffff" stroke="#0f172a" stroke-width="2" /><text x="535" y="765" font-family="Arial, sans-serif" font-size="14" font-weight="bold" text-anchor="middle" fill="#0f172a">Reporta</text><text x="535" y="726" font-family="Arial, sans-serif" font-size="13" font-weight="bold" text-anchor="middle" fill="#475569">1:N</text></g>
<text x="390" y="750" font-family="Arial, sans-serif" font-size="16" font-weight="bold" fill="#0f172a">N</text>
<text x="1235" y="335" font-family="Arial, sans-serif" font-size="16" font-weight="bold" fill="#0f172a">1</text>
<g><rect x="205" y="255" width="150" height="50" fill="#ffffff" stroke="#0f172a" stroke-width="2.5" rx="2" /><text x="280" y="286" font-family="Arial, sans-serif" font-size="16" font-weight="bold" text-anchor="middle" fill="#0f172a">Proyecto</text></g>
<g><rect x="1220" y="255" width="160" height="50" fill="#ffffff" stroke="#0f172a" stroke-width="2.5" rx="2" /><text x="1300" y="286" font-family="Arial, sans-serif" font-size="16" font-weight="bold" text-anchor="middle" fill="#0f172a">Perfil (Técnico)</text></g>
<g><rect x="715" y="445" width="150" height="50" fill="#ffffff" stroke="#0f172a" stroke-width="2.5" rx="2" /><text x="790" y="476" font-family="Arial, sans-serif" font-size="16" font-weight="bold" text-anchor="middle" fill="#0f172a">Tarea</text></g>
<g><rect x="715" y="755" width="150" height="50" fill="#ffffff" stroke="#0f172a" stroke-width="2.5" rx="2" /><text x="790" y="786" font-family="Arial, sans-serif" font-size="16" font-weight="bold" text-anchor="middle" fill="#0f172a">Subtarea</text></g>
<g><rect x="205" y="735" width="150" height="50" fill="#ffffff" stroke="#0f172a" stroke-width="2.5" rx="2" /><text x="280" y="766" font-family="Arial, sans-serif" font-size="16" font-weight="bold" text-anchor="middle" fill="#0f172a">Pendiente</text></g>
<g><rect x="1215" y="735" width="170" height="50" fill="#ffffff" stroke="#0f172a" stroke-width="2.5" rx="2" /><text x="1300" y="766" font-family="Arial, sans-serif" font-size="16" font-weight="bold" text-anchor="middle" fill="#0f172a">Registro_Campo</text></g>
</g>
</svg>